HIERARCHY
ROOT Hips
{
	OFFSET -3.958830 18.904000 13.208200
	CHANNELS 6 Xposition Yposition Zposition Zrotation Yrotation Xrotation 
	JOINT LHipJoint
	{
		OFFSET 0.000000 0.000000 0.000000
		CHANNELS 3 Zrotation Yrotation Xrotation
		JOINT LeftUpLeg
		{
			OFFSET 1.800000 -1.400000 0.085000
			CHANNELS 3 Zrotation Yrotation Xrotation
			JOINT LeftLeg
			{
				OFFSET 2.215000 -6.000000 0.000000
				CHANNELS 3 Zrotation Yrotation Xrotation
				JOINT LeftFoot
				{
					OFFSET 2.500000 -6.900000 0.000000
					CHANNELS 3 Zrotation Yrotation Xrotation
					JOINT LeftToeBase
					{
						OFFSET 0.200000 -0.500000 1.950000
						CHANNELS 3 Zrotation Yrotation Xrotation
						End Site
						{
							OFFSET 0.000000 0.000000 0.000000
						}
					}
				}
			}
		}
	}
	JOINT RHipJoint
	{
		OFFSET 0.000000 0.000000 0.000000
		CHANNELS 3 Zrotation Yrotation Xrotation
		JOINT RightUpLeg
		{
			OFFSET -1.800000 -1.400000 0.085000
			CHANNELS 3 Zrotation Yrotation Xrotation
			JOINT RightLeg
			{
				OFFSET -2.215000 -6.000000 0.000000
				CHANNELS 3 Zrotation Yrotation Xrotation
				JOINT RightFoot
				{
					OFFSET -2.500000 -6.900000 0.000000
					CHANNELS 3 Zrotation Yrotation Xrotation
					JOINT RightToeBase
					{
						OFFSET -0.200000 -0.500000 1.950000
						CHANNELS 3 Zrotation Yrotation Xrotation
						End Site
						{
							OFFSET 0.000000 0.000000 0.000000
						}
					}
				}
			}
		}
	}
	JOINT LowerBack
	{
		OFFSET 0.000000 0.000000 0.000000
		CHANNELS 3 Zrotation Yrotation Xrotation
		JOINT Spine
		{
			OFFSET -0.087000 1.940000 -0.288900
			CHANNELS 3 Zrotation Yrotation Xrotation
			JOINT Spine1
			{
				OFFSET 0.000000 1.950000 0.060000
				CHANNELS 3 Zrotation Yrotation Xrotation
				JOINT Neck
				{
					OFFSET 0.000000 0.000000 0.000000
					CHANNELS 3 Zrotation Yrotation Xrotation
					JOINT Neck1
					{
						OFFSET 0.000000 1.600000 0.340000
						CHANNELS 3 Zrotation Yrotation Xrotation
						JOINT Head
						{
							OFFSET 0.000000 1.667000 -0.240000
							CHANNELS 3 Zrotation Yrotation Xrotation
							End Site
							{
								OFFSET 0.000000 0.000000 0.000000
							}
						}
					}
				}
				JOINT LeftShoulder
				{
					OFFSET 0.000000 0.000000 0.000000
					CHANNELS 3 Zrotation Yrotation Xrotation
					JOINT LeftArm
					{
						OFFSET 2.700000 1.550000 -0.730000
						CHANNELS 3 Zrotation Yrotation Xrotation
						JOINT LeftForeArm
						{
							OFFSET 5.450000 0.000000 0.000000
							CHANNELS 3 Zrotation Yrotation Xrotation
							JOINT LeftHand
							{
								OFFSET 3.450000 0.000000 0.000000
								CHANNELS 3 Zrotation Yrotation Xrotation
								JOINT LeftHandIndex1
								{
									OFFSET 0.750000 0.000000 0.000000
									CHANNELS 3 Zrotation Yrotation Xrotation
									End Site
									{
										OFFSET 0.000000 0.000000 0.000000
									}
								}
							}
						}
					}
				}
				JOINT RightShoulder
				{
					OFFSET 0.000000 0.000000 0.000000
					CHANNELS 3 Zrotation Yrotation Xrotation
					JOINT RightArm
					{
						OFFSET -2.700000 1.550000 -0.730000
						CHANNELS 3 Zrotation Yrotation Xrotation
						JOINT RightForeArm
						{
							OFFSET -5.450000 0.000000 0.000000
							CHANNELS 3 Zrotation Yrotation Xrotation
							JOINT RightHand
							{
								OFFSET -3.450000 0.000000 0.000000
								CHANNELS 3 Zrotation Yrotation Xrotation
								JOINT RightHandIndex1
								{
									OFFSET -0.750000 0.000000 0.000000
									CHANNELS 3 Zrotation Yrotation Xrotation
									End Site
									{
										OFFSET 0.000000 0.000000 0.000000
									}
								}
							}
						}
					}
				}
			}
		}
	}
}
MOTION
Frames: 6
Frame Time: 0.016667
-1.493170 17.080800 -3.952630 -6.342853 -9.394191 -5.663420 -15.171526 10.045602 5.795154 29.550385 -0.159544 -30.087725 -42.280944 24.879042 28.482942 0.629400 12.274033 0.457375 0.373250 0.085480 -0.031250 18.746413 -8.771962 3.095750 -17.639152 8.291926 -26.975406 26.032486 -18.488774 37.810855 -1.521600 -8.482636 1.242508 0.152800 0.844820 0.636940 -4.481729 -0.628664 -9.301460 24.125197 -3.646017 20.501712 -8.153575 1.356616 13.349599 2.914178 -6.305380 -13.382127 -13.025970 2.826226 31.913565 -0.581450 -2.197940 -23.093840 -10.683334 -35.112651 6.156904 -16.104406 -35.412306 -4.074992 58.156123 -52.596812 -32.073808 -3.883530 2.135095 0.976510 0.250800 0.174970 0.478340 4.569098 39.526403 6.755997 13.187774 31.930934 -8.971133 -26.237810 45.208861 -9.680298 1.328047 -1.055811 -0.404810 0.710260 0.327570 0.022950 
-1.489150 17.034480 -3.961480 -6.221884 -9.215005 -6.350024 -15.191675 10.048549 5.824554 29.639517 -0.312152 -30.188455 -42.614032 25.378344 29.176606 0.690967 12.368670 0.411927 0.397030 0.116030 -0.014920 18.727758 -8.708285 3.134467 -18.199397 8.323551 -27.144048 26.385378 -19.214791 38.944745 -1.603096 -8.749786 1.143837 0.150650 0.802130 0.659460 -4.420780 -0.740792 -9.371023 23.800314 -3.884261 21.461735 -7.893304 1.211822 13.452313 3.036504 -6.194573 -13.580093 -12.948229 3.034036 32.553301 -0.663780 -1.943660 -23.378800 -11.050408 -35.629167 6.284605 -15.250286 -34.681266 -4.864301 57.308787 -52.736329 -31.585655 -3.877496 2.204822 0.975540 0.229560 0.205220 0.472920 4.724944 40.107714 6.709203 12.385855 31.918512 -9.498716 -27.316268 44.536914 -10.055580 1.365212 -1.078487 -0.363870 0.666550 0.313180 0.025590 
-1.484040 16.942730 -3.982040 -6.322219 -9.299445 -7.098178 -15.223736 9.971220 5.868344 30.146554 -0.310432 -30.381588 -43.308633 26.255867 30.064338 0.744971 12.553580 0.329587 0.439950 0.164540 0.017520 18.716765 -8.549580 3.257539 -19.079672 8.663211 -27.903479 27.654266 -20.694167 40.765890 -1.765599 -9.259700 0.967819 0.166630 0.754010 0.690390 -4.367615 -0.837040 -9.492492 23.749844 -4.275918 22.629435 -7.468420 0.947770 14.038200 3.247684 -6.126038 -13.968731 -12.872866 3.457854 33.321768 -1.000430 -1.524990 -24.093390 -10.942004 -36.517970 6.634237 -14.079260 -33.133771 -6.323752 57.446443 -52.473477 -31.693242 -3.893468 2.283248 0.993680 0.206270 0.248310 0.468460 4.298554 41.208494 6.399389 11.306221 32.497129 -10.108071 -28.786691 42.313237 -10.376431 1.413220 -1.109933 -0.327840 0.633640 0.300600 0.019380 
-1.478010 16.844750 -3.998990 -6.334582 -9.731864 -7.878916 -15.273245 9.932640 5.919621 30.742126 -0.252941 -30.349819 -44.157148 27.127597 30.720579 0.822743 12.660339 0.265122 0.483960 0.255160 0.051630 18.683185 -8.398142 3.368091 -19.633749 8.978717 -28.638335 28.408653 -22.036658 42.795992 -1.913293 -9.731049 0.824897 0.196410 0.676350 0.691090 -4.257396 -0.979140 -9.627471 23.308229 -4.194394 23.908295 -6.346774 0.900851 14.689978 3.343234 -5.612479 -14.310175 -11.975681 3.541238 34.359185 -1.878600 -0.821080 -24.787590 -10.878577 -37.381422 6.679188 -12.839049 -32.157002 -7.452056 55.811810 -52.138064 -30.498154 -3.874785 2.362570 0.981290 0.181000 0.298540 0.456690 4.132735 42.029602 6.480775 11.033385 32.474970 -11.278949 -31.616640 41.782561 -11.760066 1.457698 -1.132133 -0.277410 0.593050 0.262000 0.019050 
-1.466750 16.768200 -4.015270 -6.153687 -10.488709 -8.547270 -15.314926 9.916519 5.938762 31.029740 -0.203331 -30.181359 -44.844676 27.999218 31.404114 0.852841 12.828943 0.206217 0.505490 0.287550 0.102940 18.648683 -8.286874 3.478364 -20.151478 9.320176 -29.495660 28.732001 -22.981536 44.490887 -2.027542 -10.077656 0.721738 0.218450 0.648750 0.701740 -4.158262 -1.070894 -9.739974 22.725690 -3.959552 24.903218 -5.374998 0.892193 15.932448 3.586278 -5.019413 -14.906147 -10.737440 3.789406 35.129224 -3.236240 0.092330 -25.606420 -10.823684 -38.365362 7.005673 -12.126703 -30.427916 -8.882660 55.624116 -52.411456 -30.711667 -3.914763 2.355512 1.002220 0.183130 0.338510 0.442820 3.748495 43.038217 6.658218 11.233188 32.897118 -12.566102 -34.326890 40.500519 -13.049770 1.482855 -1.122514 -0.277060 0.610730 0.253360 -0.003090 
-1.454740 16.726270 -4.029510 -5.948522 -10.980879 -9.148246 -15.370932 10.005992 5.984048 31.055289 -0.364643 -30.227227 -45.009811 28.670100 32.369268 0.922864 12.945506 0.182373 0.516000 0.309220 0.149280 18.581157 -8.202402 3.519023 -20.332007 9.416853 -29.563843 28.856139 -23.401717 45.253026 -2.095190 -10.208737 0.700314 0.209370 0.608110 0.700370 -3.974613 -1.338872 -9.845983 21.945315 -3.865969 26.204194 -4.435927 0.868999 16.764882 3.996175 -4.719135 -16.007890 -10.266829 3.963531 36.248326 -4.814520 0.839620 -26.343850 -11.168134 -39.013137 7.625890 -12.561836 -28.627302 -10.237080 55.830242 -53.334337 -31.553106 -3.920871 2.342727 1.020690 0.167220 0.387010 0.439230 3.463963 44.104834 7.337582 11.691925 32.831216 -14.148450 -36.454901 40.215221 -14.247158 1.520079 -1.108775 -0.263600 0.613810 0.220880 -0.012580 
